# xmcd
#
# Track frame offsets: 
#        150
#        16352
#        39411
#        58988
#        76902
#        96048
#        112320
#        132504
#        151169
#        172777
#        197248
#        220294
#        239927
#        258903
#        277477
#
# Disc length: 3974 seconds
#
# Revision: 0
# Processed by: cddbd v1.5.2PL0 Copyright (c) Steve Scherf et al.
# Submitted via: ExactAudioCopy v0.99pb5
#
DISCID=e10f840f
DTITLE=黃凱芹 - 黃凱芹 WHIS YOU WERE HERE (B)
DYEAR=1900
DGENRE=Pop
TTITLE0=晚秋
TTITLE1=情深緣淺
TTITLE2=解釋
TTITLE3=青蔥歲月
TTITLE4=傷感的戀人
TTITLE5=平常心
TTITLE6=再遇
TTITLE7=焚情
TTITLE8=沒有結果的一些感情
TTITLE9=請你記住我
TTITLE10=MY BABY
TTITLE11=彌月醉巴黎
TTITLE12=哪裡天空不下雨
TTITLE13=蝶戀花
TTITLE14=逝去的詩篇
EXTD=
EXTT0=
EXTT1=
EXTT2=
EXTT3=
EXTT4=
EXTT5=
EXTT6=
EXTT7=
EXTT8=
EXTT9=
EXTT10=
EXTT11=
EXTT12=
EXTT13=
EXTT14=
PLAYORDER=
